<mxfile host="app.diagrams.net" modified="2023-08-28T06:39:17.565Z" agent="Mozilla/5.0 (Windows NT 10.0; Win64; x64) AppleWebKit/537.36 (KHTML, like Gecko) Chrome/116.0.0.0 Safari/537.36" etag="zuR1YVjyV02Vg5KkU47Y" version="21.6.9" type="github">
  <diagram id="R2lEEEUBdFMjLlhIrx00" name="Page-1">
    <mxGraphModel dx="934" dy="526" grid="0" gridSize="10" guides="1" tooltips="1" connect="1" arrows="1" fold="1" page="1" pageScale="1" pageWidth="850" pageHeight="1100" math="0" shadow="0" extFonts="Permanent Marker^https://fonts.googleapis.com/css?family=Permanent+Marker">
      <root>
        <mxCell id="0" />
        <mxCell id="1" parent="0" />
        <mxCell id="C-vyLk0tnHw3VtMMgP7b-12" value="" style="edgeStyle=entityRelationEdgeStyle;endArrow=ERzeroToMany;startArrow=ERone;endFill=1;startFill=0;" parent="1" target="C-vyLk0tnHw3VtMMgP7b-17" edge="1">
          <mxGeometry width="100" height="100" relative="1" as="geometry">
            <mxPoint x="700" y="164.9999999999999" as="sourcePoint" />
            <mxPoint x="460" y="205" as="targetPoint" />
          </mxGeometry>
        </mxCell>
        <mxCell id="ULqC2SZ6ojZvJLKCaTMD-9" style="edgeStyle=orthogonalEdgeStyle;rounded=0;orthogonalLoop=1;jettySize=auto;html=1;exitX=1;exitY=0.5;exitDx=0;exitDy=0;entryX=0;entryY=0.5;entryDx=0;entryDy=0;endArrow=none;endFill=0;" edge="1" parent="1" source="ULqC2SZ6ojZvJLKCaTMD-3" target="ULqC2SZ6ojZvJLKCaTMD-4">
          <mxGeometry relative="1" as="geometry" />
        </mxCell>
        <mxCell id="ULqC2SZ6ojZvJLKCaTMD-13" value="1" style="edgeLabel;html=1;align=center;verticalAlign=middle;resizable=0;points=[];" vertex="1" connectable="0" parent="ULqC2SZ6ojZvJLKCaTMD-9">
          <mxGeometry x="0.2024" y="1" relative="1" as="geometry">
            <mxPoint x="-9" y="-9" as="offset" />
          </mxGeometry>
        </mxCell>
        <mxCell id="ULqC2SZ6ojZvJLKCaTMD-11" style="edgeStyle=orthogonalEdgeStyle;rounded=0;orthogonalLoop=1;jettySize=auto;html=1;exitX=0.5;exitY=1;exitDx=0;exitDy=0;entryX=0.5;entryY=0;entryDx=0;entryDy=0;endArrow=none;endFill=0;" edge="1" parent="1" source="ULqC2SZ6ojZvJLKCaTMD-3" target="ULqC2SZ6ojZvJLKCaTMD-8">
          <mxGeometry relative="1" as="geometry" />
        </mxCell>
        <mxCell id="ULqC2SZ6ojZvJLKCaTMD-3" value="Satellite" style="whiteSpace=wrap;html=1;align=center;" vertex="1" parent="1">
          <mxGeometry x="200" y="220" width="100" height="40" as="geometry" />
        </mxCell>
        <mxCell id="ULqC2SZ6ojZvJLKCaTMD-10" style="edgeStyle=orthogonalEdgeStyle;rounded=0;orthogonalLoop=1;jettySize=auto;html=1;exitX=1;exitY=0.5;exitDx=0;exitDy=0;entryX=0;entryY=0.5;entryDx=0;entryDy=0;endArrow=none;endFill=0;" edge="1" parent="1" source="ULqC2SZ6ojZvJLKCaTMD-4" target="ULqC2SZ6ojZvJLKCaTMD-6">
          <mxGeometry relative="1" as="geometry" />
        </mxCell>
        <mxCell id="ULqC2SZ6ojZvJLKCaTMD-14" value="N" style="edgeLabel;html=1;align=center;verticalAlign=middle;resizable=0;points=[];" vertex="1" connectable="0" parent="ULqC2SZ6ojZvJLKCaTMD-10">
          <mxGeometry x="-0.1867" relative="1" as="geometry">
            <mxPoint y="-10" as="offset" />
          </mxGeometry>
        </mxCell>
        <mxCell id="ULqC2SZ6ojZvJLKCaTMD-4" value="have" style="shape=rhombus;perimeter=rhombusPerimeter;whiteSpace=wrap;html=1;align=center;" vertex="1" parent="1">
          <mxGeometry x="365" y="210" width="120" height="60" as="geometry" />
        </mxCell>
        <mxCell id="ULqC2SZ6ojZvJLKCaTMD-5" value="Ground Station" style="whiteSpace=wrap;html=1;align=center;" vertex="1" parent="1">
          <mxGeometry x="550" y="360" width="100" height="40" as="geometry" />
        </mxCell>
        <mxCell id="ULqC2SZ6ojZvJLKCaTMD-19" value="" style="edgeStyle=orthogonalEdgeStyle;rounded=0;orthogonalLoop=1;jettySize=auto;html=1;endArrow=none;endFill=0;" edge="1" parent="1" source="ULqC2SZ6ojZvJLKCaTMD-6" target="ULqC2SZ6ojZvJLKCaTMD-18">
          <mxGeometry relative="1" as="geometry" />
        </mxCell>
        <mxCell id="ULqC2SZ6ojZvJLKCaTMD-6" value="Image" style="whiteSpace=wrap;html=1;align=center;" vertex="1" parent="1">
          <mxGeometry x="550" y="220" width="100" height="40" as="geometry" />
        </mxCell>
        <mxCell id="ULqC2SZ6ojZvJLKCaTMD-7" value="Sensor" style="whiteSpace=wrap;html=1;align=center;" vertex="1" parent="1">
          <mxGeometry x="200" y="360" width="100" height="40" as="geometry" />
        </mxCell>
        <mxCell id="ULqC2SZ6ojZvJLKCaTMD-12" style="edgeStyle=orthogonalEdgeStyle;rounded=0;orthogonalLoop=1;jettySize=auto;html=1;exitX=0.5;exitY=1;exitDx=0;exitDy=0;entryX=0.5;entryY=0;entryDx=0;entryDy=0;endArrow=none;endFill=0;" edge="1" parent="1" source="ULqC2SZ6ojZvJLKCaTMD-8" target="ULqC2SZ6ojZvJLKCaTMD-7">
          <mxGeometry relative="1" as="geometry" />
        </mxCell>
        <mxCell id="ULqC2SZ6ojZvJLKCaTMD-8" value="have" style="shape=rhombus;perimeter=rhombusPerimeter;whiteSpace=wrap;html=1;align=center;" vertex="1" parent="1">
          <mxGeometry x="190" y="280" width="120" height="60" as="geometry" />
        </mxCell>
        <mxCell id="ULqC2SZ6ojZvJLKCaTMD-15" value="1" style="edgeLabel;html=1;align=center;verticalAlign=middle;resizable=0;points=[];" vertex="1" connectable="0" parent="1">
          <mxGeometry x="339.82352941176464" y="240" as="geometry">
            <mxPoint x="-82" y="29" as="offset" />
          </mxGeometry>
        </mxCell>
        <mxCell id="ULqC2SZ6ojZvJLKCaTMD-16" value="N" style="edgeLabel;html=1;align=center;verticalAlign=middle;resizable=0;points=[];" vertex="1" connectable="0" parent="1">
          <mxGeometry x="520.470588235294" y="232" as="geometry">
            <mxPoint x="-263" y="113" as="offset" />
          </mxGeometry>
        </mxCell>
        <mxCell id="ULqC2SZ6ojZvJLKCaTMD-20" value="" style="edgeStyle=orthogonalEdgeStyle;rounded=0;orthogonalLoop=1;jettySize=auto;html=1;endArrow=none;endFill=0;" edge="1" parent="1" source="ULqC2SZ6ojZvJLKCaTMD-18" target="ULqC2SZ6ojZvJLKCaTMD-5">
          <mxGeometry relative="1" as="geometry" />
        </mxCell>
        <mxCell id="ULqC2SZ6ojZvJLKCaTMD-18" value="recieved" style="shape=rhombus;perimeter=rhombusPerimeter;whiteSpace=wrap;html=1;align=center;" vertex="1" parent="1">
          <mxGeometry x="540" y="280" width="120" height="60" as="geometry" />
        </mxCell>
        <mxCell id="ULqC2SZ6ojZvJLKCaTMD-21" value="N" style="edgeLabel;html=1;align=center;verticalAlign=middle;resizable=0;points=[];" vertex="1" connectable="0" parent="1">
          <mxGeometry x="521.2068965517242" y="240" as="geometry">
            <mxPoint x="67" y="31" as="offset" />
          </mxGeometry>
        </mxCell>
        <mxCell id="ULqC2SZ6ojZvJLKCaTMD-22" value="1" style="edgeLabel;html=1;align=center;verticalAlign=middle;resizable=0;points=[];" vertex="1" connectable="0" parent="1">
          <mxGeometry x="340.31034482758616" y="240" as="geometry">
            <mxPoint x="249" y="111" as="offset" />
          </mxGeometry>
        </mxCell>
        <mxCell id="ULqC2SZ6ojZvJLKCaTMD-25" style="edgeStyle=orthogonalEdgeStyle;rounded=0;orthogonalLoop=1;jettySize=auto;html=1;entryX=0.5;entryY=0;entryDx=0;entryDy=0;endArrow=none;endFill=0;" edge="1" parent="1" source="ULqC2SZ6ojZvJLKCaTMD-23" target="ULqC2SZ6ojZvJLKCaTMD-3">
          <mxGeometry relative="1" as="geometry" />
        </mxCell>
        <mxCell id="ULqC2SZ6ojZvJLKCaTMD-35" style="edgeStyle=orthogonalEdgeStyle;rounded=0;orthogonalLoop=1;jettySize=auto;html=1;exitX=1;exitY=0.5;exitDx=0;exitDy=0;entryX=0.093;entryY=0.025;entryDx=0;entryDy=0;entryPerimeter=0;endArrow=none;endFill=0;" edge="1" parent="1" source="ULqC2SZ6ojZvJLKCaTMD-23" target="ULqC2SZ6ojZvJLKCaTMD-6">
          <mxGeometry relative="1" as="geometry" />
        </mxCell>
        <mxCell id="ULqC2SZ6ojZvJLKCaTMD-42" style="edgeStyle=orthogonalEdgeStyle;rounded=0;orthogonalLoop=1;jettySize=auto;html=1;exitX=0;exitY=0.5;exitDx=0;exitDy=0;entryX=0;entryY=0.5;entryDx=0;entryDy=0;endArrow=none;endFill=0;" edge="1" parent="1" source="ULqC2SZ6ojZvJLKCaTMD-23" target="ULqC2SZ6ojZvJLKCaTMD-7">
          <mxGeometry relative="1" as="geometry">
            <mxPoint x="70" y="380" as="targetPoint" />
            <Array as="points">
              <mxPoint x="70" y="140" />
              <mxPoint x="70" y="380" />
            </Array>
          </mxGeometry>
        </mxCell>
        <mxCell id="ULqC2SZ6ojZvJLKCaTMD-23" value="satellite_id" style="ellipse;whiteSpace=wrap;html=1;align=center;fontStyle=4;" vertex="1" parent="1">
          <mxGeometry x="200" y="120" width="100" height="40" as="geometry" />
        </mxCell>
        <mxCell id="ULqC2SZ6ojZvJLKCaTMD-30" style="edgeStyle=orthogonalEdgeStyle;rounded=0;orthogonalLoop=1;jettySize=auto;html=1;exitX=1;exitY=1;exitDx=0;exitDy=0;entryX=0.25;entryY=0;entryDx=0;entryDy=0;endArrow=none;endFill=0;" edge="1" parent="1" source="ULqC2SZ6ojZvJLKCaTMD-26" target="ULqC2SZ6ojZvJLKCaTMD-3">
          <mxGeometry relative="1" as="geometry" />
        </mxCell>
        <mxCell id="ULqC2SZ6ojZvJLKCaTMD-26" value="launch_date" style="ellipse;whiteSpace=wrap;html=1;align=center;" vertex="1" parent="1">
          <mxGeometry x="100" y="150" width="100" height="40" as="geometry" />
        </mxCell>
        <mxCell id="ULqC2SZ6ojZvJLKCaTMD-29" style="edgeStyle=orthogonalEdgeStyle;rounded=0;orthogonalLoop=1;jettySize=auto;html=1;entryX=0.64;entryY=0.075;entryDx=0;entryDy=0;entryPerimeter=0;endArrow=none;endFill=0;" edge="1" parent="1" source="ULqC2SZ6ojZvJLKCaTMD-27" target="ULqC2SZ6ojZvJLKCaTMD-3">
          <mxGeometry relative="1" as="geometry" />
        </mxCell>
        <mxCell id="ULqC2SZ6ojZvJLKCaTMD-27" value="satellite_name" style="ellipse;whiteSpace=wrap;html=1;align=center;" vertex="1" parent="1">
          <mxGeometry x="300" y="150" width="100" height="40" as="geometry" />
        </mxCell>
        <mxCell id="ULqC2SZ6ojZvJLKCaTMD-31" value="" style="edgeStyle=orthogonalEdgeStyle;rounded=0;orthogonalLoop=1;jettySize=auto;html=1;endArrow=none;endFill=0;" edge="1" parent="1" source="ULqC2SZ6ojZvJLKCaTMD-28" target="ULqC2SZ6ojZvJLKCaTMD-3">
          <mxGeometry relative="1" as="geometry" />
        </mxCell>
        <mxCell id="ULqC2SZ6ojZvJLKCaTMD-28" value="description" style="ellipse;whiteSpace=wrap;html=1;align=center;" vertex="1" parent="1">
          <mxGeometry x="80" y="200" width="100" height="40" as="geometry" />
        </mxCell>
        <mxCell id="ULqC2SZ6ojZvJLKCaTMD-34" style="edgeStyle=orthogonalEdgeStyle;rounded=0;orthogonalLoop=1;jettySize=auto;html=1;entryX=0.619;entryY=-0.081;entryDx=0;entryDy=0;entryPerimeter=0;strokeColor=default;endArrow=none;endFill=0;" edge="1" parent="1" source="ULqC2SZ6ojZvJLKCaTMD-32" target="ULqC2SZ6ojZvJLKCaTMD-6">
          <mxGeometry relative="1" as="geometry">
            <mxPoint x="610" y="210" as="targetPoint" />
          </mxGeometry>
        </mxCell>
        <mxCell id="ULqC2SZ6ojZvJLKCaTMD-32" value="image_id" style="ellipse;whiteSpace=wrap;html=1;align=center;fontStyle=4;" vertex="1" parent="1">
          <mxGeometry x="560" y="120" width="100" height="40" as="geometry" />
        </mxCell>
        <mxCell id="ULqC2SZ6ojZvJLKCaTMD-41" style="edgeStyle=orthogonalEdgeStyle;rounded=0;orthogonalLoop=1;jettySize=auto;html=1;exitX=0;exitY=0.5;exitDx=0;exitDy=0;entryX=1;entryY=0.75;entryDx=0;entryDy=0;endArrow=none;endFill=0;" edge="1" parent="1" source="ULqC2SZ6ojZvJLKCaTMD-36" target="ULqC2SZ6ojZvJLKCaTMD-6">
          <mxGeometry relative="1" as="geometry" />
        </mxCell>
        <mxCell id="ULqC2SZ6ojZvJLKCaTMD-36" value="file_location" style="ellipse;whiteSpace=wrap;html=1;align=center;" vertex="1" parent="1">
          <mxGeometry x="700" y="232" width="100" height="40" as="geometry" />
        </mxCell>
        <mxCell id="ULqC2SZ6ojZvJLKCaTMD-40" style="edgeStyle=orthogonalEdgeStyle;rounded=0;orthogonalLoop=1;jettySize=auto;html=1;exitX=0;exitY=0.5;exitDx=0;exitDy=0;entryX=1;entryY=0.25;entryDx=0;entryDy=0;endArrow=none;endFill=0;" edge="1" parent="1" source="ULqC2SZ6ojZvJLKCaTMD-37" target="ULqC2SZ6ojZvJLKCaTMD-6">
          <mxGeometry relative="1" as="geometry" />
        </mxCell>
        <mxCell id="ULqC2SZ6ojZvJLKCaTMD-37" value="resolution" style="ellipse;whiteSpace=wrap;html=1;align=center;" vertex="1" parent="1">
          <mxGeometry x="690" y="180" width="100" height="40" as="geometry" />
        </mxCell>
        <mxCell id="ULqC2SZ6ojZvJLKCaTMD-39" style="edgeStyle=orthogonalEdgeStyle;rounded=0;orthogonalLoop=1;jettySize=auto;html=1;exitX=0;exitY=1;exitDx=0;exitDy=0;entryX=0.88;entryY=0.042;entryDx=0;entryDy=0;entryPerimeter=0;endArrow=none;endFill=0;" edge="1" parent="1" source="ULqC2SZ6ojZvJLKCaTMD-38" target="ULqC2SZ6ojZvJLKCaTMD-6">
          <mxGeometry relative="1" as="geometry" />
        </mxCell>
        <mxCell id="ULqC2SZ6ojZvJLKCaTMD-38" value="capture_date" style="ellipse;whiteSpace=wrap;html=1;align=center;" vertex="1" parent="1">
          <mxGeometry x="670" y="130" width="100" height="40" as="geometry" />
        </mxCell>
        <mxCell id="ULqC2SZ6ojZvJLKCaTMD-48" style="edgeStyle=orthogonalEdgeStyle;rounded=0;orthogonalLoop=1;jettySize=auto;html=1;exitX=0.5;exitY=0;exitDx=0;exitDy=0;entryX=0.5;entryY=1;entryDx=0;entryDy=0;endArrow=none;endFill=0;" edge="1" parent="1" source="ULqC2SZ6ojZvJLKCaTMD-44" target="ULqC2SZ6ojZvJLKCaTMD-7">
          <mxGeometry relative="1" as="geometry" />
        </mxCell>
        <mxCell id="ULqC2SZ6ojZvJLKCaTMD-44" value="sensor_id" style="ellipse;whiteSpace=wrap;html=1;align=center;fontStyle=4;" vertex="1" parent="1">
          <mxGeometry x="200" y="450" width="100" height="40" as="geometry" />
        </mxCell>
        <mxCell id="ULqC2SZ6ojZvJLKCaTMD-47" style="edgeStyle=orthogonalEdgeStyle;rounded=0;orthogonalLoop=1;jettySize=auto;html=1;exitX=1;exitY=0;exitDx=0;exitDy=0;entryX=0.25;entryY=1;entryDx=0;entryDy=0;endArrow=none;endFill=0;" edge="1" parent="1" source="ULqC2SZ6ojZvJLKCaTMD-45" target="ULqC2SZ6ojZvJLKCaTMD-7">
          <mxGeometry relative="1" as="geometry" />
        </mxCell>
        <mxCell id="ULqC2SZ6ojZvJLKCaTMD-45" value="sensor_type" style="ellipse;whiteSpace=wrap;html=1;align=center;" vertex="1" parent="1">
          <mxGeometry x="120" y="410" width="100" height="40" as="geometry" />
        </mxCell>
        <mxCell id="ULqC2SZ6ojZvJLKCaTMD-49" style="edgeStyle=orthogonalEdgeStyle;rounded=0;orthogonalLoop=1;jettySize=auto;html=1;exitX=0;exitY=0;exitDx=0;exitDy=0;entryX=0.88;entryY=0.975;entryDx=0;entryDy=0;entryPerimeter=0;endArrow=none;endFill=0;" edge="1" parent="1" source="ULqC2SZ6ojZvJLKCaTMD-46" target="ULqC2SZ6ojZvJLKCaTMD-7">
          <mxGeometry relative="1" as="geometry" />
        </mxCell>
        <mxCell id="ULqC2SZ6ojZvJLKCaTMD-46" value="sensor_name" style="ellipse;whiteSpace=wrap;html=1;align=center;" vertex="1" parent="1">
          <mxGeometry x="300" y="420" width="100" height="40" as="geometry" />
        </mxCell>
        <mxCell id="ULqC2SZ6ojZvJLKCaTMD-59" style="edgeStyle=orthogonalEdgeStyle;rounded=0;orthogonalLoop=1;jettySize=auto;html=1;exitX=0.5;exitY=0;exitDx=0;exitDy=0;entryX=0.75;entryY=1;entryDx=0;entryDy=0;endArrow=none;endFill=0;" edge="1" parent="1" source="ULqC2SZ6ojZvJLKCaTMD-50" target="ULqC2SZ6ojZvJLKCaTMD-5">
          <mxGeometry relative="1" as="geometry" />
        </mxCell>
        <mxCell id="ULqC2SZ6ojZvJLKCaTMD-50" value="station_id" style="ellipse;whiteSpace=wrap;html=1;align=center;fontStyle=4;" vertex="1" parent="1">
          <mxGeometry x="580" y="450" width="100" height="40" as="geometry" />
        </mxCell>
        <mxCell id="ULqC2SZ6ojZvJLKCaTMD-56" style="edgeStyle=orthogonalEdgeStyle;rounded=0;orthogonalLoop=1;jettySize=auto;html=1;exitX=0;exitY=0;exitDx=0;exitDy=0;entryX=0.933;entryY=1.025;entryDx=0;entryDy=0;entryPerimeter=0;endArrow=none;endFill=0;" edge="1" parent="1" source="ULqC2SZ6ojZvJLKCaTMD-51" target="ULqC2SZ6ojZvJLKCaTMD-5">
          <mxGeometry relative="1" as="geometry" />
        </mxCell>
        <mxCell id="ULqC2SZ6ojZvJLKCaTMD-51" value="location" style="ellipse;whiteSpace=wrap;html=1;align=center;" vertex="1" parent="1">
          <mxGeometry x="690" y="430" width="100" height="40" as="geometry" />
        </mxCell>
        <mxCell id="ULqC2SZ6ojZvJLKCaTMD-55" style="edgeStyle=orthogonalEdgeStyle;rounded=0;orthogonalLoop=1;jettySize=auto;html=1;entryX=1;entryY=0.25;entryDx=0;entryDy=0;endArrow=none;endFill=0;" edge="1" parent="1" source="ULqC2SZ6ojZvJLKCaTMD-52" target="ULqC2SZ6ojZvJLKCaTMD-5">
          <mxGeometry relative="1" as="geometry" />
        </mxCell>
        <mxCell id="ULqC2SZ6ojZvJLKCaTMD-52" value="contact_person" style="ellipse;whiteSpace=wrap;html=1;align=center;" vertex="1" parent="1">
          <mxGeometry x="690" y="350" width="100" height="40" as="geometry" />
        </mxCell>
        <mxCell id="ULqC2SZ6ojZvJLKCaTMD-60" style="edgeStyle=orthogonalEdgeStyle;rounded=0;orthogonalLoop=1;jettySize=auto;html=1;exitX=1;exitY=0;exitDx=0;exitDy=0;entryX=0.25;entryY=1;entryDx=0;entryDy=0;endArrow=none;endFill=0;" edge="1" parent="1" source="ULqC2SZ6ojZvJLKCaTMD-53" target="ULqC2SZ6ojZvJLKCaTMD-5">
          <mxGeometry relative="1" as="geometry" />
        </mxCell>
        <mxCell id="ULqC2SZ6ojZvJLKCaTMD-53" value="station_name" style="ellipse;whiteSpace=wrap;html=1;align=center;" vertex="1" parent="1">
          <mxGeometry x="471.21000000000004" y="420" width="100" height="40" as="geometry" />
        </mxCell>
      </root>
    </mxGraphModel>
  </diagram>
</mxfile>
